HIERARCHY
ROOT Hips
{
	OFFSET 0.000000 83.214638 0.000000
	CHANNELS 6 Xposition Yposition Zposition Xrotation Yrotation Zrotation
	JOINT Pelvis
	{
		OFFSET 0.000000 0.000000 0.000000
		CHANNELS 3 Xrotation Yrotation Zrotation
		JOINT LeftUpLeg
		{
			OFFSET 8.479700 -4.795502 -0.379100
			CHANNELS 3 Xrotation Yrotation Zrotation
			JOINT LeftLeg
			{
				OFFSET 0.024144 -32.555107 0.112900
				CHANNELS 3 Xrotation Yrotation Zrotation
				JOINT LeftFoot
				{
					OFFSET -0.024144 -32.638630 -3.012600
					CHANNELS 3 Xrotation Yrotation Zrotation
					JOINT LeftToeBase
					{
						OFFSET 0.970200 -13.225400 11.864200
						CHANNELS 3 Xrotation Yrotation Zrotation
						End Site
						{
							OFFSET 0.000000 12.319262 0.000000
						}
					}
					JOINT LFootTongue
					{
						OFFSET 1.142400 -1.059800 6.665200
						CHANNELS 3 Xrotation Yrotation Zrotation
						End Site
						{
							OFFSET 0.000000 12.319262 0.000000
						}
					}
				}
				JOINT LeftPantLeg
				{
					OFFSET 0.918482 -16.533964 -2.284700
					CHANNELS 3 Xrotation Yrotation Zrotation
					End Site
					{
						OFFSET 0.350399 24.744368 0.000000
					}
				}
			}
		}
		JOINT RightUpLeg
		{
			OFFSET -8.479700 -4.795502 -0.379100
			CHANNELS 3 Xrotation Yrotation Zrotation
			JOINT RightLeg
			{
				OFFSET -0.023144 -32.555092 0.112900
				CHANNELS 3 Xrotation Yrotation Zrotation
				JOINT RightFoot
				{
					OFFSET 0.023144 -32.638641 -3.012700
					CHANNELS 3 Xrotation Yrotation Zrotation
					JOINT RightToeBase
					{
						OFFSET -0.970200 -13.225400 11.864200
						CHANNELS 3 Xrotation Yrotation Zrotation
						End Site
						{
							OFFSET 0.000000 12.319244 0.000000
						}
					}
					JOINT RFootTongue
					{
						OFFSET -1.142200 -1.059800 6.665200
						CHANNELS 3 Xrotation Yrotation Zrotation
						End Site
						{
							OFFSET 0.000000 12.319243 0.000000
						}
					}
				}
				JOINT RightPantLeg
				{
					OFFSET -0.919482 -16.533978 -2.284800
					CHANNELS 3 Xrotation Yrotation Zrotation
					End Site
					{
						OFFSET -0.350400 24.744419 0.000000
					}
				}
			}
		}
	}
	JOINT Spine
	{
		OFFSET 0.000000 7.722000 1.166200
		CHANNELS 3 Xrotation Yrotation Zrotation
		JOINT Spine1
		{
			OFFSET 0.000000 12.024101 0.248800
			CHANNELS 3 Xrotation Yrotation Zrotation
			JOINT Spine2
			{
				OFFSET 0.000000 11.502998 -0.491200
				CHANNELS 3 Xrotation Yrotation Zrotation
				JOINT Neck
				{
					OFFSET 0.000000 18.430702 -3.123100
					CHANNELS 3 Xrotation Yrotation Zrotation
					JOINT Head
					{
						OFFSET 0.000000 9.051102 1.034000
						CHANNELS 3 Xrotation Yrotation Zrotation
						JOINT HairB
						{
							OFFSET 0.208400 24.786102 24.822300
							CHANNELS 3 Xrotation Yrotation Zrotation
							End Site
							{
								OFFSET 0.000000 32.263779 0.000000
							}
						}
						JOINT HairA
						{
							OFFSET -7.081100 24.428299 23.196600
							CHANNELS 3 Xrotation Yrotation Zrotation
							End Site
							{
								OFFSET 0.000000 32.263779 0.000000
							}
						}
						JOINT Hat
						{
							OFFSET 16.728800 15.048294 -15.439601
							CHANNELS 3 Xrotation Yrotation Zrotation
							End Site
							{
								OFFSET 0.000000 32.263779 0.000000
							}
						}
					}
				}
				JOINT LeftShoulder
				{
					OFFSET 6.197800 13.665199 -4.064700
					CHANNELS 3 Xrotation Yrotation Zrotation
					JOINT LeftArm
					{
						OFFSET 7.778100 -0.187103 -1.709300
						CHANNELS 3 Xrotation Yrotation Zrotation
						JOINT LeftForeArm
						{
							OFFSET 22.049376 0.000000 0.000000
							CHANNELS 3 Xrotation Yrotation Zrotation
							JOINT LeftHand
							{
								OFFSET 23.009392 0.000000 0.000000
								CHANNELS 3 Xrotation Yrotation Zrotation
								JOINT LeftHandThumb1
								{
									OFFSET 3.507191 -2.063065 3.133727
									CHANNELS 3 Xrotation Yrotation Zrotation
									JOINT LeftHandThumb2
									{
										OFFSET 3.101337 -1.790558 1.790558
										CHANNELS 3 Xrotation Yrotation Zrotation
										JOINT LeftHandThumb3
										{
											OFFSET 3.058640 -1.765907 1.765906
											CHANNELS 3 Xrotation Yrotation Zrotation
											End Site
											{
												OFFSET -0.415260 3.926476 -0.049563
											}
										}
									}
								}
								JOINT LeftHandIndex1
								{
									OFFSET 11.334419 -0.901459 3.706815
									CHANNELS 3 Xrotation Yrotation Zrotation
									JOINT LeftHandIndex2
									{
										OFFSET 3.283112 0.000000 0.000000
										CHANNELS 3 Xrotation Yrotation Zrotation
										JOINT LeftHandIndex3
										{
											OFFSET 3.323853 0.000000 0.000000
											CHANNELS 3 Xrotation Yrotation Zrotation
											End Site
											{
												OFFSET -1.135597 3.097809 0.402452
											}
										}
									}
								}
								JOINT LeftHandMiddle1
								{
									OFFSET 11.335861 0.000000 0.000000
									CHANNELS 3 Xrotation Yrotation Zrotation
									JOINT LeftHandMiddle2
									{
										OFFSET 3.410492 0.000000 0.000000
										CHANNELS 3 Xrotation Yrotation Zrotation
										JOINT LeftHandMiddle3
										{
											OFFSET 3.312172 0.000000 0.000000
											CHANNELS 3 Xrotation Yrotation Zrotation
											End Site
											{
												OFFSET -1.150200 3.080154 0.400270
											}
										}
									}
								}
								JOINT LeftHandRing1
								{
									OFFSET 11.514786 -0.013176 -3.003090
									CHANNELS 3 Xrotation Yrotation Zrotation
									JOINT LeftHandRing2
									{
										OFFSET 3.053307 0.000000 0.000000
										CHANNELS 3 Xrotation Yrotation Zrotation
										JOINT LeftHandRing3
										{
											OFFSET 3.295807 0.000000 0.000000
											CHANNELS 3 Xrotation Yrotation Zrotation
											End Site
											{
												OFFSET -1.281006 3.013344 0.375733
											}
										}
									}
								}
								JOINT LeftHandPinky1
								{
									OFFSET 10.518692 -0.960396 -5.730441
									CHANNELS 3 Xrotation Yrotation Zrotation
									JOINT LeftHandPinky2
									{
										OFFSET 2.861649 0.000000 0.000000
										CHANNELS 3 Xrotation Yrotation Zrotation
										JOINT LeftHandPinky3
										{
											OFFSET 2.863380 0.000000 0.000000
											CHANNELS 3 Xrotation Yrotation Zrotation
											End Site
											{
												OFFSET -0.843597 2.711159 0.369971
											}
										}
									}
								}
							}
							JOINT LSleeve
							{
								OFFSET 6.676277 -0.344902 -1.011730
								CHANNELS 3 Xrotation Yrotation Zrotation
								End Site
								{
									OFFSET 0.000000 14.885353 0.000000
								}
							}
						}
					}
				}
				JOINT RightShoulder
				{
					OFFSET -6.197800 13.665199 -4.064700
					CHANNELS 3 Xrotation Yrotation Zrotation
					JOINT RightArm
					{
						OFFSET -7.778100 -0.187103 -1.709300
						CHANNELS 3 Xrotation Yrotation Zrotation
						JOINT RightForeArm
						{
							OFFSET -22.049376 0.000000 0.000000
							CHANNELS 3 Xrotation Yrotation Zrotation
							JOINT RightHand
							{
								OFFSET -23.009392 0.000000 0.000000
								CHANNELS 3 Xrotation Yrotation Zrotation
								JOINT RightHandThumb1
								{
									OFFSET -3.507191 -2.063065 3.133727
									CHANNELS 3 Xrotation Yrotation Zrotation
									JOINT RightHandThumb2
									{
										OFFSET -3.101337 -1.790558 1.790558
										CHANNELS 3 Xrotation Yrotation Zrotation
										JOINT RightHandThumb3
										{
											OFFSET -3.058640 -1.765907 1.765906
											CHANNELS 3 Xrotation Yrotation Zrotation
											End Site
											{
												OFFSET 0.415260 3.926476 -0.049563
											}
										}
									}
								}
								JOINT RightHandIndex1
								{
									OFFSET -11.334419 -0.901459 3.706815
									CHANNELS 3 Xrotation Yrotation Zrotation
									JOINT RightHandIndex2
									{
										OFFSET -3.283112 0.000000 0.000000
										CHANNELS 3 Xrotation Yrotation Zrotation
										JOINT RightHandIndex3
										{
											OFFSET -3.323853 0.000000 0.000000
											CHANNELS 3 Xrotation Yrotation Zrotation
											End Site
											{
												OFFSET 1.135597 3.097809 0.402452
											}
										}
									}
								}
								JOINT RightHandMiddle1
								{
									OFFSET -11.335861 0.000000 0.000000
									CHANNELS 3 Xrotation Yrotation Zrotation
									JOINT RightHandMiddle2
									{
										OFFSET -3.410492 0.000000 0.000000
										CHANNELS 3 Xrotation Yrotation Zrotation
										JOINT RightHandMiddle3
										{
											OFFSET -3.312172 0.000000 0.000000
											CHANNELS 3 Xrotation Yrotation Zrotation
											End Site
											{
												OFFSET 1.150200 3.080154 0.400270
											}
										}
									}
								}
								JOINT RightHandRing1
								{
									OFFSET -11.514786 -0.013176 -3.003090
									CHANNELS 3 Xrotation Yrotation Zrotation
									JOINT RightHandRing2
									{
										OFFSET -3.053307 0.000000 0.000000
										CHANNELS 3 Xrotation Yrotation Zrotation
										JOINT RightHandRing3
										{
											OFFSET -3.295807 0.000000 0.000000
											CHANNELS 3 Xrotation Yrotation Zrotation
											End Site
											{
												OFFSET 1.281006 3.013344 0.375733
											}
										}
									}
								}
								JOINT RightHandPinky1
								{
									OFFSET -10.518692 -0.960396 -5.730441
									CHANNELS 3 Xrotation Yrotation Zrotation
									JOINT RightHandPinky2
									{
										OFFSET -2.861649 0.000000 0.000000
										CHANNELS 3 Xrotation Yrotation Zrotation
										JOINT RightHandPinky3
										{
											OFFSET -2.863380 0.000000 0.000000
											CHANNELS 3 Xrotation Yrotation Zrotation
											End Site
											{
												OFFSET 0.843597 2.711159 0.369971
											}
										}
									}
								}
							}
							JOINT RSleeve
							{
								OFFSET -6.676277 -0.344902 -1.011730
								CHANNELS 3 Xrotation Yrotation Zrotation
								End Site
								{
									OFFSET 0.000000 14.885353 0.000000
								}
							}
						}
					}
				}
				JOINT Backpack
				{
					OFFSET 0.000000 -2.471497 36.677502
					CHANNELS 3 Xrotation Yrotation Zrotation
					End Site
					{
						OFFSET 0.000000 20.427315 0.000000
					}
				}
				JOINT Hood
				{
					OFFSET 0.000000 18.754097 -10.431000
					CHANNELS 3 Xrotation Yrotation Zrotation
					JOINT Hood1
					{
						OFFSET 0.000000 -5.011002 -7.685901
						CHANNELS 3 Xrotation Yrotation Zrotation
						End Site
						{
							OFFSET 0.000000 9.175140 0.000000
						}
					}
				}
				JOINT LHoodieString
				{
					OFFSET 5.250500 16.397697 3.089900
					CHANNELS 3 Xrotation Yrotation Zrotation
					JOINT LHoodieString1
					{
						OFFSET 0.257700 -6.364304 3.694600
						CHANNELS 3 Xrotation Yrotation Zrotation
						JOINT LHoodieString2
						{
							OFFSET 0.000000 -9.643799 2.679100
							CHANNELS 3 Xrotation Yrotation Zrotation
							End Site
							{
								OFFSET 0.000000 10.009018 0.000000
							}
						}
					}
				}
				JOINT RHoodieString
				{
					OFFSET -5.250500 16.397697 3.089900
					CHANNELS 3 Xrotation Yrotation Zrotation
					JOINT RHoodieString1
					{
						OFFSET -0.257700 -6.364304 3.694600
						CHANNELS 3 Xrotation Yrotation Zrotation
						JOINT RHoodieString2
						{
							OFFSET 0.000000 -9.643799 2.679100
							CHANNELS 3 Xrotation Yrotation Zrotation
							End Site
							{
								OFFSET 0.000000 10.009018 0.000000
							}
						}
					}
				}
			}
			JOINT LBackpack_Strap
			{
				OFFSET 15.223200 -7.719803 -6.610900
				CHANNELS 3 Xrotation Yrotation Zrotation
				End Site
				{
					OFFSET 0.000000 16.040596 0.000000
				}
			}
			JOINT RBackpack_Strap
			{
				OFFSET -15.223000 -7.719803 -6.610900
				CHANNELS 3 Xrotation Yrotation Zrotation
				End Site
				{
					OFFSET 0.000000 16.040596 0.000000
				}
			}
		}
	}
	JOINT BoyFacialAnim_Joint
	{
		OFFSET 1.000000 -82.208099 -1.550900
		CHANNELS 3 Xrotation Yrotation Zrotation
		End Site
		{
			OFFSET 0.000000 30.012791 0.000000
		}
	}
}
MOTION
Frames: 4
Frame Time: 0.033333
-1.751466 73.159782 -0.511112 8.008750 -56.884022 11.662966 0.000000 -0.000003 0.000000 -37.285924 7.999386 24.459292 43.530138 -7.116886 -11.074159 -10.103901 -2.640187 -9.202745 0.000000 -0.000003 0.000000 0.000000 -0.000003 0.000000 -0.000001 0.000004 -0.000002 -36.363312 -7.577462 -25.517261 52.224347 1.091747 -7.924379 -22.432319 2.291815 20.470360 -0.000000 0.000000 -0.000000 -0.000000 0.000000 -0.000000 0.000003 0.000000 -0.000001 12.118969 0.127105 -1.135164 9.374884 -0.218708 -5.146791 9.583406 -0.253141 -4.622645 -21.353917 24.650535 11.030410 -1.869301 25.557390 -4.269316 0.000000 -0.000000 0.000000 0.000000 -0.000000 0.000000 0.000000 -0.000000 0.000000 -5.781772 -11.749644 -1.707101 -26.442968 10.746969 -37.628383 -1.546245 -43.512437 -0.615070 22.980977 -6.528567 16.432839 -1.146073 -8.457816 8.290812 2.218492 19.527427 -2.234551 -0.000000 -0.000000 -0.000002 13.309891 -1.004505 11.348532 -0.168348 0.291498 -30.438687 -0.000001 0.000002 0.000000 8.494624 -0.336008 -0.248259 0.235066 0.659046 -29.234876 -0.000000 -0.000002 -0.000004 6.112262 3.148694 -15.543566 0.046774 0.317914 -29.458541 0.000002 -0.000001 -0.000006 -5.641050 7.698366 -13.211270 0.221776 0.274397 -45.921377 -0.000000 -0.000001 -0.000000 0.000000 0.000000 0.000005 -5.320430 12.092565 2.371135 -45.577197 -26.234876 25.827744 28.424602 112.783301 -26.301018 -8.863606 12.544403 -12.359234 -0.065907 12.448564 -9.985529 1.901515 -18.869040 2.426024 0.000001 -0.000003 0.000003 18.843155 8.401024 -11.553554 -0.117042 -0.324263 19.746190 0.000001 0.000001 0.000002 4.197292 0.806562 -3.117633 0.350710 -0.467508 28.600960 0.000005 0.000003 0.000000 -7.008532 -10.718346 7.422675 0.112151 -0.109943 27.866409 -0.000002 0.000001 0.000002 -19.432143 -20.237156 7.689140 0.222488 -0.092348 38.555199 -0.000001 -0.000000 0.000000 0.000000 -0.000003 -0.000004 -0.000000 0.000002 -0.000002 -0.000000 0.000002 -0.000002 -0.000000 0.000002 -0.000002 -0.000000 0.000002 -0.000002 -0.000000 0.000002 -0.000003 -0.000003 -0.000001 0.000001 -0.000000 0.000002 -0.000002 -0.000000 0.000002 -0.000003 -0.000003 -0.000001 0.000001 0.000001 -0.000001 0.000001 0.000001 -0.000001 0.000001 0.000000 -0.000003 0.000000 
-1.352792 73.263390 -0.444730 7.078830 -57.090433 10.708854 -0.000000 -0.000002 0.000000 -37.130445 8.462205 24.437053 43.547459 -7.320711 -10.774843 -9.914869 -2.688367 -8.924090 -0.000000 0.000000 -0.000000 -0.000000 0.000000 -0.000000 0.000000 0.000002 0.000001 -35.863479 -7.679032 -25.546504 51.593514 1.308334 -7.848961 -21.785578 2.403561 20.499565 0.000000 -0.000001 -0.000000 0.000000 -0.000001 -0.000000 -0.000000 -0.000001 -0.000000 11.972045 0.088735 -1.536954 9.187997 -0.219194 -5.264462 9.396105 -0.244985 -4.882317 -21.365610 24.770239 10.968503 -1.781523 25.524420 -4.091113 0.000000 -0.000000 -0.000000 0.000000 -0.000000 -0.000000 0.000000 -0.000000 -0.000000 -5.869738 -11.621336 -2.104248 -25.622444 10.267587 -37.550942 -0.941275 -43.470445 -0.330765 22.946770 -6.386387 16.355223 -1.120713 -8.321624 8.346910 2.262324 19.654399 -2.186225 -0.000001 0.000001 0.000000 13.310469 -1.005111 11.166564 -0.168153 0.291662 -30.620715 -0.000001 -0.000000 -0.000002 8.491692 -0.334275 -0.430218 0.236070 0.659598 -29.416942 -0.000000 0.000001 0.000004 6.110356 3.150749 -15.725479 0.046850 0.319128 -29.640535 -0.000001 0.000000 -0.000004 -5.641841 7.699510 -13.393534 0.222489 0.274982 -46.103384 -0.000000 -0.000003 -0.000003 0.000001 0.000001 0.000001 -5.354563 11.813954 2.390483 -44.491183 -26.462048 26.962091 27.712448 112.655310 -25.538146 -8.861865 12.403613 -11.363965 0.025051 11.818593 -10.226138 1.764626 -18.483557 2.578794 -0.000001 0.000005 0.000001 18.985532 9.135610 -12.022673 -0.117490 -0.323862 19.294494 -0.000001 0.000001 -0.000001 4.219270 1.239306 -3.564538 0.347975 -0.465843 28.149224 -0.000000 -0.000001 0.000001 -7.009374 -10.714136 6.971644 0.112052 -0.106936 27.414743 -0.000001 0.000000 0.000007 -19.428895 -20.235916 7.240795 0.220935 -0.090623 38.103491 0.000002 -0.000001 -0.000002 -0.000000 -0.000003 -0.000004 0.000002 0.000001 0.000001 0.000002 0.000001 0.000001 0.000002 0.000001 0.000001 0.000002 0.000001 0.000001 0.000002 0.000001 0.000002 0.000001 0.000003 -0.000000 0.000002 0.000001 0.000001 0.000002 0.000001 0.000002 0.000001 0.000003 -0.000000 0.000001 -0.000001 0.000000 0.000001 -0.000001 0.000000 -0.000000 -0.000002 0.000000 
-0.990134 73.373352 -0.349882 6.216436 -57.348515 9.820472 0.000000 0.000001 0.000000 -36.904721 8.877980 24.407370 43.556284 -7.416342 -10.512868 -9.781401 -2.727450 -8.680738 -0.000000 0.000003 0.000000 -0.000000 0.000003 0.000000 0.000001 -0.000002 0.000001 -35.352325 -7.764717 -25.560856 50.916369 1.553612 -7.779112 -21.150265 2.515343 20.531374 -0.000000 0.000000 0.000000 -0.000000 0.000000 0.000000 0.000001 -0.000000 0.000001 11.822822 0.061618 -1.913334 9.009919 -0.200634 -5.364458 9.210279 -0.219218 -5.113821 -21.427721 24.916474 11.062887 -1.525136 25.498737 -3.917222 -0.000000 0.000000 -0.000000 -0.000000 0.000000 -0.000000 -0.000000 0.000000 -0.000000 -5.974060 -11.453817 -2.521367 -24.957118 9.935011 -37.419608 -0.522071 -43.401863 -0.160049 22.911859 -6.247049 16.281054 -1.098365 -8.201489 8.396364 2.301818 19.766583 -2.144746 0.000001 -0.000000 0.000002 13.310971 -1.005675 11.005941 -0.167955 0.291785 -30.781289 -0.000001 0.000000 -0.000002 8.489095 -0.332738 -0.590797 0.236948 0.660167 -29.577557 -0.000001 -0.000001 0.000000 6.108689 3.152620 -15.886006 0.046934 0.320183 -29.801154 0.000001 -0.000001 -0.000008 -5.642533 7.700513 -13.554389 0.223107 0.275486 -46.263996 -0.000002 0.000000 -0.000002 0.000002 -0.000001 0.000003 -5.395701 11.594251 2.407794 -43.511215 -26.611240 27.980205 26.399163 112.305351 -24.266725 -8.831769 12.269076 -10.381263 0.105566 11.249975 -10.442379 1.640218 -18.136068 2.717118 0.000001 0.000001 -0.000002 19.123633 9.797262 -12.447535 -0.117856 -0.323504 18.886800 0.000002 -0.000000 0.000002 4.244876 1.629535 -3.967949 0.345716 -0.464398 27.741582 0.000002 0.000001 0.000002 -7.010754 -10.710373 6.564787 0.111988 -0.104272 27.007050 -0.000002 0.000000 0.000004 -19.426830 -20.234541 6.836778 0.219584 -0.089044 37.695831 -0.000002 -0.000001 0.000002 0.000000 -0.000001 -0.000000 -0.000000 0.000002 -0.000002 -0.000000 0.000002 -0.000002 -0.000000 0.000002 -0.000002 -0.000000 0.000002 -0.000002 -0.000000 0.000002 -0.000001 -0.000001 -0.000003 0.000002 -0.000000 0.000002 -0.000002 -0.000000 0.000002 -0.000001 -0.000001 -0.000003 0.000002 -0.000000 0.000001 -0.000001 -0.000000 0.000001 -0.000001 0.000000 0.000001 0.000000 
-0.675711 73.494232 -0.246577 5.337272 -57.641722 8.951627 -0.000000 0.000001 -0.000000 -36.547325 9.268009 24.350406 43.497995 -7.420681 -10.282398 -9.671066 -2.758821 -8.484216 -0.000000 0.000002 0.000000 -0.000000 0.000002 0.000000 -0.000000 0.000001 0.000000 -34.791922 -7.843065 -25.565381 50.211053 1.807212 -7.739018 -20.543575 2.619753 20.568025 -0.000000 0.000001 0.000000 -0.000000 0.000001 0.000000 0.000001 -0.000001 0.000001 11.671523 0.046349 -2.287899 8.841890 -0.162172 -5.459277 9.024235 -0.171311 -5.321196 -21.456049 25.025729 11.262367 -1.275828 25.479802 -3.743027 0.000000 0.000000 -0.000000 0.000000 0.000000 -0.000000 0.000000 0.000000 -0.000000 -6.058559 -11.391037 -2.940865 -24.275264 9.696477 -37.223196 -0.262812 -43.322404 -0.080882 22.871293 -6.107666 16.206782 -1.079754 -8.101263 8.437598 2.332977 19.861164 -2.110638 -0.000000 -0.000000 0.000002 13.311390 -1.006086 10.871908 -0.167820 0.291801 -30.915287 -0.000002 -0.000002 -0.000002 8.486948 -0.331403 -0.724781 0.237701 0.660533 -29.711535 0.000001 -0.000001 -0.000002 6.107299 3.154096 -16.019937 0.046999 0.321122 -29.935090 0.000001 0.000001 -0.000000 -5.643096 7.701334 -13.688642 0.223614 0.275952 -46.398001 0.000000 0.000003 -0.000001 0.000001 0.000001 -0.000002 -5.421576 11.349022 2.425383 -42.679301 -26.698113 28.840597 25.276305 111.968923 -23.282433 -8.768942 12.208309 -9.765715 0.172830 10.766327 -10.625658 1.533981 -17.840731 2.835019 -0.000002 -0.000005 0.000004 19.248310 10.358868 -12.810021 -0.118214 -0.323193 18.540154 0.000001 -0.000000 0.000002 4.270893 1.961143 -4.311141 0.343791 -0.463082 27.394926 -0.000001 0.000003 0.000004 -7.010063 -10.707271 6.219396 0.111902 -0.101979 26.660414 -0.000001 -0.000001 0.000000 -19.425741 -20.233179 6.493693 0.218399 -0.087732 37.349182 -0.000004 0.000001 0.000000 0.000001 -0.000004 -0.000002 -0.000001 0.000000 0.000001 -0.000001 0.000000 0.000001 -0.000001 0.000000 0.000001 -0.000001 0.000000 0.000001 -0.000001 0.000000 -0.000000 -0.000001 -0.000000 -0.000001 -0.000001 0.000000 0.000001 -0.000001 0.000000 -0.000000 -0.000001 -0.000000 -0.000001 -0.000001 0.000000 -0.000000 -0.000001 0.000000 -0.000000 -0.000000 0.000001 -0.000000 
